<svg width="154" height="240" viewBox="0 0 154 240" fill="none" xmlns="http://www.w3.org/2000/svg">
<path d="M22.6168 66.6788C20.6968 66.6788 19.0817 68.1748 19.0251 70.1324C19.0084 70.7118 19 71.2932 19 71.8767C19 103.977 44.5102 130 75.9786 130C107.447 130 132.957 103.977 132.957 71.8767C132.957 71.2932 132.949 70.7118 132.932 70.1324C132.875 68.1748 133.883 63 129.714 63L22.6168 66.6788Z" fill="url(#paint0_linear_72_296)"/>
<path fill-rule="evenodd" clip-rule="evenodd" d="M135.183 109C146.346 109 152 99.8346 152 88.5282C152 77.222 144.901 67.5196 135.183 72.2078C124.021 72.2078 114.973 77.222 114.973 88.5282C114.973 99.8346 103.667 109 135.183 109ZM135.183 102.212C142.426 102.212 145.828 95.6286 145.366 88.5282C144.903 81.4279 142.426 78.9275 135.183 78.9275C127.941 78.9275 122.069 81.1921 122.069 88.5282C122.069 95.8644 127.941 102.212 135.183 102.212Z" fill="url(#paint1_linear_72_296)"/>
<path d="M66.4128 1.74115C66.1384 0.696838 67.6824 -0.526694 68.432 0.240305C72.7808 4.6902 74.6439 8.26306 74.9529 11.324C75.3759 15.5132 72.8945 18.8119 69.6895 22.1845C69.5136 22.3698 69.3352 22.5553 69.1554 22.7412L68.8778 23.0262L68.3538 23.5609L67.7277 24.195C65.0214 26.9324 62.1608 29.826 60.3691 33.3383C58.7576 36.4968 58.0094 40.1523 58.9713 44.6457C59.1877 45.6568 57.85 46.4806 57.2115 45.6746C53.2412 40.6624 51.8664 36.5283 52.0101 32.9339C52.1944 28.3103 54.8902 24.5236 57.9621 20.8438C58.4634 20.2438 58.9751 19.6459 59.4869 19.048L59.4933 19.0404C60.5422 17.8148 61.5913 16.5887 62.5517 15.3422C63.9846 13.4818 65.2324 11.5595 66.0092 9.48874C66.7861 7.4147 67.0901 5.19363 66.6364 2.73983C66.5757 2.41098 66.5013 2.07815 66.4128 1.74115Z" fill="url(#paint2_linear_72_296)"/>
<path d="M83.4128 12.7412C83.1384 11.6968 84.6824 10.4733 85.432 11.2403C89.7808 15.6902 91.6439 19.2631 91.9529 22.3241C92.3759 26.5133 89.8945 29.8119 86.6895 33.1845C86.5135 33.3698 86.3352 33.5553 86.1554 33.7412L85.8778 34.0263L85.3539 34.5609L84.7277 35.195C82.0214 37.9325 79.1608 40.826 77.3691 44.3384C75.7576 47.4968 75.0094 51.1523 75.9711 55.6458C76.1875 56.6568 74.85 57.4806 74.2115 56.6745C70.2412 51.6625 68.8664 47.5284 69.0101 43.9339C69.1944 39.3104 71.8902 35.5236 74.9621 31.8438C75.4634 31.2438 75.9751 30.646 76.4869 30.048L76.4933 30.0404C77.5422 28.8148 78.5913 27.5887 79.5516 26.3422C80.9846 24.4818 82.2324 22.5595 83.0092 20.4886C83.786 18.4147 84.0899 16.1936 83.6364 13.7398C83.5757 13.4109 83.5013 13.0781 83.4128 12.7412Z" fill="url(#paint3_linear_72_296)"/>
<path d="M125.027 134.006C129.945 133.815 133.168 138.23 129.259 141.257C122.321 146.627 106.464 151.69 74.8978 150.923C40.346 150.083 26.0667 147.112 20.4413 142.253C16.5883 138.925 21.1312 134.149 26.1841 134.514C36.24 135.243 52.7994 136.478 74.8978 136.478C100.091 136.478 113.034 134.472 125.027 134.006Z" fill="url(#paint4_linear_72_296)"/>
<path d="M119.849 134C124.924 134 128.403 138.507 123.963 140.894C117.471 144.385 103.376 147 74.2974 147C42.8557 147 28.4288 144.426 21.9971 140.979C17.5534 138.597 21.2091 134 26.2838 134C36.1486 134 52.2933 134 74.2974 134C96.4178 134 110.635 134 119.849 134Z" fill="#313131"/>
<path fill-rule="evenodd" clip-rule="evenodd" d="M20.3289 63C17.4399 63 15 65.2762 15 68.2538C15 100.699 40.5199 127 72.0002 127C103.481 127 129 100.699 129 68.2538C129 65.2762 126.56 63 123.672 63H20.3289Z" fill="#313131"/>
<path fill-rule="evenodd" clip-rule="evenodd" d="M133.184 106C144.346 106 150 96.7827 150 85.4126C150 74.0425 144.346 69 133.184 69C122.022 69 112.973 74.0425 112.973 85.4126C112.973 96.7827 101.667 106 133.184 106ZM133.184 99.1739C140.427 99.1739 143.829 92.553 143.366 85.4126C142.904 78.2723 140.427 75.7577 133.184 75.7577C125.941 75.7577 120.07 78.0351 120.07 85.4126C120.07 92.7901 125.941 99.1739 133.184 99.1739Z" fill="#313131"/>
<path d="M52.6051 168.088C52.6051 168.195 52.5625 168.291 52.4771 168.376C52.4131 168.44 52.3278 168.472 52.2211 168.472H45.5331C45.4265 168.472 45.3731 168.525 45.3731 168.632V173.688C45.3731 173.795 45.4265 173.848 45.5331 173.848H49.3731C49.4798 173.848 49.5651 173.891 49.6291 173.976C49.7145 174.04 49.7571 174.125 49.7571 174.232V177.336C49.7571 177.443 49.7145 177.539 49.6291 177.624C49.5651 177.688 49.4798 177.72 49.3731 177.72H45.5331C45.4265 177.72 45.3731 177.773 45.3731 177.88V182.968C45.3731 183.075 45.4265 183.128 45.5331 183.128H52.2211C52.3278 183.128 52.4131 183.171 52.4771 183.256C52.5625 183.32 52.6051 183.405 52.6051 183.512V186.616C52.6051 186.723 52.5625 186.819 52.4771 186.904C52.4131 186.968 52.3278 187 52.2211 187H41.2451C41.1385 187 41.0425 186.968 40.9571 186.904C40.8931 186.819 40.8611 186.723 40.8611 186.616V164.984C40.8611 164.877 40.8931 164.792 40.9571 164.728C41.0425 164.643 41.1385 164.6 41.2451 164.6H52.2211C52.3278 164.6 52.4131 164.643 52.4771 164.728C52.5625 164.792 52.6051 164.877 52.6051 164.984V168.088ZM59.2124 187C58.9777 187 58.839 186.883 58.7964 186.648L54.2204 165.016L54.1884 164.888C54.1884 164.696 54.3057 164.6 54.5404 164.6H58.6684C58.9244 164.6 59.063 164.717 59.0844 164.952L61.2924 179.032C61.3137 179.117 61.3457 179.16 61.3884 179.16C61.431 179.16 61.463 179.117 61.4844 179.032L63.6284 164.952C63.6497 164.717 63.7884 164.6 64.0444 164.6H68.0444C68.3217 164.6 68.4284 164.739 68.3644 165.016L63.7564 186.648C63.7137 186.883 63.575 187 63.3404 187H59.2124ZM82.2614 168.088C82.2614 168.195 82.2187 168.291 82.1334 168.376C82.0694 168.44 81.984 168.472 81.8774 168.472H75.1894C75.0827 168.472 75.0294 168.525 75.0294 168.632V173.688C75.0294 173.795 75.0827 173.848 75.1894 173.848H79.0294C79.136 173.848 79.2214 173.891 79.2854 173.976C79.3707 174.04 79.4134 174.125 79.4134 174.232V177.336C79.4134 177.443 79.3707 177.539 79.2854 177.624C79.2214 177.688 79.136 177.72 79.0294 177.72H75.1894C75.0827 177.72 75.0294 177.773 75.0294 177.88V182.968C75.0294 183.075 75.0827 183.128 75.1894 183.128H81.8774C81.984 183.128 82.0694 183.171 82.1334 183.256C82.2187 183.32 82.2614 183.405 82.2614 183.512V186.616C82.2614 186.723 82.2187 186.819 82.1334 186.904C82.0694 186.968 81.984 187 81.8774 187H70.9014C70.7947 187 70.6987 186.968 70.6134 186.904C70.5494 186.819 70.5174 186.723 70.5174 186.616V164.984C70.5174 164.877 70.5494 164.792 70.6134 164.728C70.6987 164.643 70.7947 164.6 70.9014 164.6H81.8774C81.984 164.6 82.0694 164.643 82.1334 164.728C82.2187 164.792 82.2614 164.877 82.2614 164.984V168.088ZM93.7006 164.984C93.7006 164.877 93.7326 164.792 93.7966 164.728C93.882 164.643 93.978 164.6 94.0846 164.6H97.7966C97.9033 164.6 97.9886 164.643 98.0526 164.728C98.138 164.792 98.1806 164.877 98.1806 164.984V186.616C98.1806 186.723 98.138 186.819 98.0526 186.904C97.9886 186.968 97.9033 187 97.7966 187H93.5726C93.3593 187 93.2206 186.893 93.1566 186.68L89.1886 174.296C89.1673 174.232 89.1246 174.211 89.0606 174.232C89.018 174.232 88.9966 174.264 88.9966 174.328L89.0286 186.616C89.0286 186.723 88.986 186.819 88.9006 186.904C88.8366 186.968 88.7513 187 88.6446 187H84.9326C84.826 187 84.73 186.968 84.6446 186.904C84.5806 186.819 84.5486 186.723 84.5486 186.616V164.984C84.5486 164.877 84.5806 164.792 84.6446 164.728C84.73 164.643 84.826 164.6 84.9326 164.6H89.1246C89.338 164.6 89.4766 164.707 89.5406 164.92L93.5406 177.304C93.562 177.368 93.594 177.4 93.6366 177.4C93.7006 177.379 93.7326 177.336 93.7326 177.272L93.7006 164.984ZM113.402 164.6C113.509 164.6 113.594 164.643 113.658 164.728C113.743 164.792 113.786 164.877 113.786 164.984V168.088C113.786 168.195 113.743 168.291 113.658 168.376C113.594 168.44 113.509 168.472 113.402 168.472H109.402C109.295 168.472 109.242 168.525 109.242 168.632V186.616C109.242 186.723 109.199 186.819 109.114 186.904C109.05 186.968 108.965 187 108.858 187H105.114C105.007 187 104.911 186.968 104.826 186.904C104.762 186.819 104.73 186.723 104.73 186.616V168.632C104.73 168.525 104.677 168.472 104.57 168.472H100.73C100.623 168.472 100.527 168.44 100.442 168.376C100.378 168.291 100.346 168.195 100.346 168.088V164.984C100.346 164.877 100.378 164.792 100.442 164.728C100.527 164.643 100.623 164.6 100.73 164.6H113.402ZM63.6744 194.984C63.6744 194.877 63.7064 194.792 63.7704 194.728C63.8557 194.643 63.9517 194.6 64.0584 194.6H67.8024C67.909 194.6 67.9944 194.643 68.0584 194.728C68.1437 194.792 68.1864 194.877 68.1864 194.984V216.616C68.1864 216.723 68.1437 216.819 68.0584 216.904C67.9944 216.968 67.909 217 67.8024 217H64.0584C63.9517 217 63.8557 216.968 63.7704 216.904C63.7064 216.819 63.6744 216.723 63.6744 216.616V207.88C63.6744 207.773 63.621 207.72 63.5144 207.72H60.3144C60.2077 207.72 60.1544 207.773 60.1544 207.88V216.616C60.1544 216.723 60.1117 216.819 60.0264 216.904C59.9624 216.968 59.877 217 59.7704 217H56.0264C55.9197 217 55.8237 216.968 55.7384 216.904C55.6744 216.819 55.6424 216.723 55.6424 216.616V194.984C55.6424 194.877 55.6744 194.792 55.7384 194.728C55.8237 194.643 55.9197 194.6 56.0264 194.6H59.7704C59.877 194.6 59.9624 194.643 60.0264 194.728C60.1117 194.792 60.1544 194.877 60.1544 194.984V203.688C60.1544 203.795 60.2077 203.848 60.3144 203.848H63.5144C63.621 203.848 63.6744 203.795 63.6744 203.688V194.984ZM77.2894 217.256C75.3694 217.256 73.8227 216.659 72.6494 215.464C71.4974 214.248 70.9214 212.637 70.9214 210.632V194.984C70.9214 194.877 70.9534 194.792 71.0174 194.728C71.1027 194.643 71.1987 194.6 71.3054 194.6H75.0494C75.156 194.6 75.2414 194.643 75.3054 194.728C75.3907 194.792 75.4334 194.877 75.4334 194.984V211.08C75.4334 211.763 75.604 212.317 75.9454 212.744C76.2867 213.171 76.7347 213.384 77.2894 213.384C77.844 213.384 78.2814 213.171 78.6014 212.744C78.9427 212.317 79.1134 211.763 79.1134 211.08V194.984C79.1134 194.877 79.1454 194.792 79.2094 194.728C79.2947 194.643 79.3907 194.6 79.4974 194.6H83.2414C83.348 194.6 83.4334 194.643 83.4974 194.728C83.5827 194.792 83.6254 194.877 83.6254 194.984V210.632C83.6254 212.637 83.0387 214.248 81.8654 215.464C80.7134 216.659 79.188 217.256 77.2894 217.256ZM99.0064 210.824C99.0064 212.808 98.409 214.333 97.2144 215.4C96.0197 216.467 94.473 217 92.5744 217H86.5264C86.4197 217 86.3237 216.968 86.2384 216.904C86.1744 216.819 86.1424 216.723 86.1424 216.616V194.984C86.1424 194.877 86.1744 194.792 86.2384 194.728C86.3237 194.643 86.4197 194.6 86.5264 194.6H91.8704C94.0037 194.6 95.6677 195.112 96.8624 196.136C98.0784 197.16 98.6864 198.685 98.6864 200.712C98.6864 202.824 97.961 204.36 96.5104 205.32C96.425 205.384 96.4144 205.448 96.4784 205.512C98.1637 206.707 99.0064 208.477 99.0064 210.824ZM90.8144 198.472C90.7077 198.472 90.6544 198.525 90.6544 198.632V203.656C90.6544 203.763 90.7077 203.816 90.8144 203.816H91.9664C92.6917 203.816 93.257 203.592 93.6624 203.144C94.0677 202.675 94.2704 202.024 94.2704 201.192C94.2704 200.317 94.0677 199.645 93.6624 199.176C93.2784 198.707 92.713 198.472 91.9664 198.472H90.8144ZM92.2224 213.096C92.9264 213.096 93.481 212.84 93.8864 212.328C94.2917 211.816 94.4944 211.091 94.4944 210.152C94.4944 209.213 94.2917 208.467 93.8864 207.912C93.481 207.357 92.937 207.08 92.2544 207.08H90.8144C90.7077 207.08 90.6544 207.133 90.6544 207.24V212.936C90.6544 213.043 90.7077 213.096 90.8144 213.096H92.2224Z" fill="white"/>
<defs>
<linearGradient id="paint0_linear_72_296" x1="130.023" y1="65.8353" x2="120.872" y2="129.894" gradientUnits="userSpaceOnUse">
<stop stop-color="#6100FF"/>
<stop offset="1" stop-color="#00FFE0"/>
</linearGradient>
<linearGradient id="paint1_linear_72_296" x1="130.246" y1="66.2695" x2="121.227" y2="129.84" gradientUnits="userSpaceOnUse">
<stop stop-color="#6100FF"/>
<stop offset="1" stop-color="#00FFE0"/>
</linearGradient>
<linearGradient id="paint2_linear_72_296" x1="70.0312" y1="-2.49584" x2="56.38" y2="48.3301" gradientUnits="userSpaceOnUse">
<stop stop-color="#6100FF"/>
<stop offset="0.9999" stop-color="#00FFE0"/>
</linearGradient>
<linearGradient id="paint3_linear_72_296" x1="87.0312" y1="8.50414" x2="73.3799" y2="59.3302" gradientUnits="userSpaceOnUse">
<stop stop-color="#6100FF"/>
<stop offset="0.9999" stop-color="#00FFE0"/>
</linearGradient>
<linearGradient id="paint4_linear_72_296" x1="9.36333" y1="141.447" x2="122.015" y2="141.447" gradientUnits="userSpaceOnUse">
<stop stop-color="#6100FF"/>
<stop offset="1" stop-color="#00FFE0"/>
</linearGradient>
</defs>
</svg>
